<?xml version="1.0" encoding="UTF-8"?>
<svg id="Layer_1" data-name="Layer 1" xmlns="http://www.w3.org/2000/svg" viewBox="0 0 117.43 117.46">
  <defs>
    <style>
      .cls-1 {
        fill: #fff;
      }
    </style>
  </defs>
  <path fill="red" d="M66.98,106.45c.91,1.44,1.74,2.75,2.76,4.36-5.35,1.46-10.51,1.96-15.73,1.7-14.54-.74-27.15-6.15-37.42-16.44-21.84-21.9-22.34-56.95-.19-79.35C37.63-4.72,71.37-5.54,93.63,14.27c11.3,10.05,17.52,22.76,18.8,37.79,.5,5.85,.16,11.71-1.61,17.64-1.56-.98-2.89-1.81-4.26-2.67,3.42-20.86-2.65-38.25-19.29-51.43-10.06-7.97-21.84-11.36-34.61-10.38C26.45,7.24,6.3,28.01,5.17,54.04c-.72,16.54,5.45,30.52,18.12,41.26,12.66,10.73,27.41,14.14,43.69,11.14Z"/>
  <path fill="red" d="M117.42,92.98c.27,13.52-11.51,24.64-24.62,24.48-12.99-.16-24.31-10.84-24.29-24.52,.02-13.42,10.98-24.43,24.46-24.48,13.31-.05,24.7,11.05,24.45,24.52Zm-24.33,19.41c10.66-.03,19.47-8.86,19.36-19.59-.11-10.66-8.74-19.33-19.55-19.28-10.62,.05-19.41,8.5-19.36,19.59,.05,10.8,8.95,19.34,19.56,19.27Z"/>
  <path fill="red" d="M53.83,26.26v-6.52h5.06v6.44c1.1,.25,1.99,.49,2.9,.64,6.99,1.21,11.77,6.75,12.98,13.09,.17,.91,.28,1.85,.36,2.77,.05,.63-.23,1.19-.91,1.22-1.37,.06-2.74,.02-4.2,.02-.28-1.35-.53-2.57-.79-3.79-1.16-5.53-5.06-9.04-10.74-9.5-3.14-.25-6.26-.14-9.24,1.1-4.06,1.68-5.91,4.92-6.31,9.1-.27,2.73-.02,5.37,1.91,7.58,1.52,1.74,3.47,2.86,5.62,3.51,3.77,1.14,7.61,2.04,11.4,3.12,3.41,.96,6.78,2.03,9.61,4.31,2.73,2.21,4.29,5.06,4.58,8.56,.04,.5-.15,1.19-.49,1.52-1.28,1.25-2.66,2.39-4.01,3.56-.08,.07-.21,.07-.48,.14,0-.45-.04-.84,0-1.21,.66-5.12-1.32-8.74-6.18-10.6-2.75-1.06-5.66-1.74-8.52-2.5-3.84-1.02-7.77-1.78-11.31-3.72-4.45-2.44-6.85-6.16-7.16-11.28-.24-3.9,.42-7.53,2.64-10.79,2.33-3.41,5.66-5.28,9.64-6.1,1.15-.24,2.3-.43,3.62-.67Z"/>
  <path fill="red" d="M64.77,85.06c-1.94,.44-3.84,.86-5.95,1.34v6.48h-4.95v-6.56c-1.09-.23-2.03-.44-2.97-.62-3.16-.6-6.09-1.67-8.59-3.79-2.51-2.14-4.06-4.86-4.88-7.98-.51-1.95-.71-3.99-1.02-5.99-.05-.3,.03-.63,.06-1.1h5.08c.05,.63,.13,1.18,.14,1.73,.1,3.05,1.01,5.81,2.87,8.26,1.68,2.2,3.96,3.54,6.5,4.33,4.48,1.4,8.98,1.23,13.38-.48,.34-.13,.65-.32,.99-.48,.32-.15,.64-.28,.97-.42,.09,.06,.18,.11,.27,.17-.6,1.63-1.21,3.27-1.89,5.11Z"/>
  <path class="cls-1" d="M93.09,112.38c-10.61,.07-19.51-8.47-19.56-19.27-.05-11.09,8.75-19.54,19.36-19.59,10.81-.05,19.44,8.62,19.55,19.28,.11,10.73-8.69,19.56-19.36,19.59Zm-.15-15.82c.52,.46,.9,.76,1.24,1.1,1.82,1.81,3.61,3.64,5.45,5.43,1.24,1.2,2.6,1.2,3.66,.11,.99-1.01,.97-2.39-.16-3.58-1.6-1.68-3.26-3.29-4.89-4.95-.5-.51-.98-1.05-1.62-1.74,.85-.88,1.6-1.66,2.36-2.42,1.35-1.36,2.72-2.68,4.06-4.05,1.28-1.31,1.31-2.79,.14-3.87-1.1-1.02-2.3-.96-3.56,.26-1.84,1.79-3.63,3.62-5.45,5.42-.33,.33-.72,.61-1.16,.98-.45-.38-.83-.66-1.17-.99-1.89-1.85-3.73-3.75-5.65-5.57-1.16-1.1-2.45-1.06-3.46-.02-1.01,1.03-1.04,2.34,.02,3.47,1.22,1.31,2.51,2.55,3.77,3.83,.93,.95,1.86,1.9,2.87,2.92-.4,.47-.68,.85-1.01,1.19-1.8,1.82-3.64,3.61-5.42,5.45-1.26,1.3-1.32,2.57-.25,3.65,1.09,1.11,2.32,1.1,3.65-.09,.82-.73,1.58-1.53,2.36-2.3,1.38-1.37,2.75-2.74,4.26-4.23Z"/>
  <path fill="red" d="M92.95,96.56c-1.5,1.49-2.88,2.86-4.26,4.23-.78,.77-1.54,1.57-2.36,2.3-1.33,1.19-2.56,1.2-3.65,.09-1.06-1.08-1-2.35,.25-3.65,1.79-1.84,3.62-3.63,5.42-5.45,.33-.34,.62-.72,1.01-1.19-1.01-1.03-1.93-1.98-2.87-2.92-1.26-1.27-2.54-2.52-3.77-3.83-1.06-1.13-1.03-2.44-.02-3.47,1.01-1.04,2.3-1.08,3.46,.02,1.92,1.82,3.76,3.71,5.65,5.57,.34,.33,.72,.62,1.17,.99,.44-.37,.83-.65,1.16-.98,1.82-1.8,3.62-3.64,5.45-5.42,1.25-1.22,2.46-1.28,3.56-.26,1.17,1.08,1.14,2.55-.14,3.87-1.33,1.37-2.71,2.7-4.06,4.05-.76,.76-1.5,1.54-2.36,2.42,.64,.69,1.11,1.23,1.62,1.74,1.63,1.65,3.29,3.27,4.89,4.95,1.13,1.19,1.16,2.56,.16,3.58-1.06,1.09-2.43,1.08-3.66-.11-1.84-1.78-3.63-3.62-5.45-5.43-.34-.34-.71-.64-1.24-1.1Z"/>
</svg>