<?xml version="1.0" encoding="UTF-8"?>
<svg id="Layer_1" data-name="Layer 1" xmlns="http://www.w3.org/2000/svg" viewBox="0 0 120.02 119.72">
  <defs>
    <style>
      .cls-1 {
        fill: #fff;
      }
    </style>
  </defs>
  <path fill="red" d="M59.82,119.72C26.35,119.8-.31,92.43,0,59.32,.3,27.33,26-.03,60.05,0c33.28,.03,60.03,26.53,59.97,59.98-.05,33.62-27.27,60.03-60.2,59.74Zm5.36-34.77c1.72-.54,3.51-1.08,5.29-1.68,5.53-1.86,8.37-5.94,8.96-11.54,.62-5.93-1.98-10.57-7.38-13.09-3.41-1.59-7.04-2.69-10.6-3.95-2.34-.83-4.75-1.47-7.07-2.34-1.53-.57-2.81-1.53-2.95-3.49,.76-2.09,2.38-3.3,4.49-3.9,2.82-.8,5.67-1.02,8.56-.36,2.32,.53,4.63,1.2,6.99,1.45,2.36,.25,4.19-1.2,4.77-3.25,.6-2.13-.34-4.46-2.49-5.46-1.69-.79-3.53-1.28-5.32-1.85-1.11-.35-2.25-.58-3.23-.83-.31-1.77-.5-3.25-.83-4.68-.39-1.69-1.52-2.77-3.17-3.27-2.84-.85-5.69,1.27-6.07,4.52-.15,1.26-.17,2.53-.26,3.93-1.22,.37-2.26,.66-3.29,.99-5.37,1.68-9.47,6.6-9.73,11.68-.35,6.68,2.12,10.77,8.39,13.25,3.59,1.42,7.36,2.37,11.02,3.64,2.34,.81,4.78,1.54,6.88,2.8,2.7,1.61,2.48,4.63-.23,6.25-.76,.45-1.62,.78-2.47,1.03-2.53,.74-5.08,.88-7.66,.17-3.45-.95-6.9-1.93-10.39-2.72-.98-.22-2.24-.14-3.14,.29-3.27,1.55-3.41,6.47-.24,8.35,1.26,.74,2.75,1.13,4.17,1.57,2.17,.66,4.36,1.22,6.7,1.86,.1,1.69,.11,3.17,.3,4.62,.34,2.58,1.86,4.05,4.23,4.28,2.35,.23,4.42-1.23,5.05-3.71,.36-1.43,.49-2.91,.74-4.53Z"/>
  <path class="cls-1" d="M65.19,84.95c-.26,1.61-.38,3.1-.74,4.53-.62,2.48-2.69,3.94-5.05,3.71-2.37-.23-3.89-1.7-4.23-4.28-.19-1.46-.2-2.94-.3-4.62-2.34-.64-4.54-1.2-6.7-1.86-1.42-.43-2.91-.82-4.17-1.57-3.17-1.87-3.02-6.79,.24-8.35,.9-.43,2.15-.52,3.14-.29,3.49,.8,6.93,1.78,10.39,2.72,2.58,.71,5.13,.57,7.66-.17,.85-.25,1.71-.57,2.47-1.03,2.71-1.61,2.93-4.63,.23-6.25-2.1-1.25-4.54-1.98-6.88-2.8-3.65-1.27-7.43-2.22-11.02-3.64-6.26-2.48-8.73-6.57-8.39-13.25,.26-5.08,4.36-10,9.73-11.68,1.03-.32,2.07-.62,3.29-.99,.09-1.4,.11-2.68,.26-3.93,.38-3.24,3.24-5.36,6.07-4.52,1.65,.49,2.78,1.58,3.17,3.27,.34,1.44,.52,2.91,.83,4.68,.99,.25,2.13,.48,3.23,.83,1.79,.56,3.63,1.06,5.32,1.85,2.15,1,3.09,3.33,2.49,5.46-.58,2.05-2.41,3.5-4.77,3.25-2.36-.25-4.67-.92-6.99-1.45-2.89-.66-5.74-.44-8.56,.36-2.11,.6-3.73,1.81-4.49,3.9,.14,1.96,1.43,2.92,2.95,3.49,2.32,.87,4.73,1.51,7.07,2.34,3.56,1.26,7.19,2.36,10.6,3.95,5.41,2.52,8,7.16,7.38,13.09-.58,5.6-3.43,9.68-8.96,11.54-1.78,.6-3.57,1.14-5.29,1.68Z"/>
</svg>