<?xml version="1.0" encoding="UTF-8"?>
<svg id="Layer_1" data-name="Layer 1" xmlns="http://www.w3.org/2000/svg" viewBox="0 0 338.85 89.18">
  <defs>
    <style>
      .cls-1 {
        fill: #020202;
      }

      .cls-2 {
        fill: #fdfdfd;
      }
    </style>
  </defs>
  <path class="cls-2" d="M310.53,41.67c.05,1.82,.11,3.13-.27,4.4-.29,.98-.81,1.75-1.97,1.78-1.17,.03-1.84-.63-2.19-1.67-.14-.4-.27-.81-.3-1.22-.31-4.05,0-8.04,1.25-11.93,.18-.56,.32-1.36,1.04-1.36,.72,0,.86,.78,1.06,1.34,1.08,2.96,1.18,6.08,1.38,8.66Z"/>
  <g>
    <path class="cls-1" d="M278.51,75.13c.04-7.49,.99-13.83,2.16-20.13,1.54-8.3,3.53-16.5,6-24.58,2.21-7.23,4.73-14.35,8.31-21.03,1.54-2.87,3.48-5.44,6.25-7.25,4.91-3.22,9.77-2.78,14.07,1.23,3.66,3.41,6.09,7.67,8.17,12.13,3.39,7.29,5.73,14.96,7.69,22.74,2.22,8.81,4.42,17.62,6.03,26.57,.71,3.96,1.6,7.91,1.66,11.96,.1,6.98-4.74,11.82-11.72,11.88-4.87,.04-8.31-2.23-10.68-6.36-2-3.5-2.73-7.39-3.54-11.26-.18-.86-.09-2.03-.62-2.5-.59-.52-1.58,.35-2.42,.47-1.95,.28-3.9,.57-5.78-.3-.81-.37-.71,.32-.8,.68-.72,2.79-1.52,5.55-2.5,8.26-.91,2.5-2.03,4.88-3.62,7.03-3.35,4.54-10.33,5.94-14.59,2.9-1.97-1.4-2.84-3.46-3.35-5.72-.58-2.56-.74-5.16-.69-6.72Zm32.02-33.46c-.2-2.58-.3-5.7-1.38-8.66-.2-.56-.34-1.35-1.06-1.34-.73,0-.86,.8-1.04,1.36-1.25,3.89-1.56,7.88-1.25,11.93,.03,.41,.17,.83,.3,1.22,.35,1.04,1.02,1.7,2.19,1.67,1.16-.03,1.68-.8,1.97-1.78,.38-1.27,.32-2.58,.27-4.4Z"/>
    <path class="cls-1" d="M172.39,52.47c-.01-6.99,.14-13.97,.95-20.93,.49-4.22,1.55-8.12,4.71-11.2,3.55-3.46,8-3.76,11.99-.79,3.06,2.28,5,5.37,6.45,8.8,1.34,3.18,2.56,6.41,3.87,9.6,.28,.68,.48,1.65,1.4,1.62,.82-.02,1.06-.91,1.37-1.56,1.45-3.01,2.43-6.21,3.73-9.28,1.43-3.41,2.97-6.75,5.71-9.36,3.56-3.39,8.14-2.98,10.98,1.05,2.36,3.34,3.34,7.21,4.03,11.16,1.16,6.57,1.29,13.21,1.23,19.85-.05,5.53,.05,11.06-.33,16.58-.34,4.9-.74,9.8-2.56,14.43-.92,2.36-2.12,4.56-5.04,4.74-3.44,.22-6.37-.82-8.29-3.9-1.3-2.08-1.69-4.44-1.85-6.82-.32-4.74-.07-9.44,1.19-14.05,.54-1.96,.31-3.96,.19-5.95-.02-.32-.04-.75-.47-.84-.41-.09-.73,.15-.98,.47-.91,1.14-1.3,2.51-1.7,3.87-.95,3.24-1.94,6.46-3.37,9.53-.13,.28-.26,.56-.39,.83-1.55,3.09-4.42,3.68-7.1,1.46-2.22-1.84-3.11-4.43-3.82-7.08-.62-2.33-1.05-4.72-1.62-7.07-.14-.56-.16-1.52-.78-1.51-.7,0-.77,.96-.88,1.57-.34,1.86-.29,3.73-.2,5.62,.21,4.4,.8,8.8,.35,13.22-.22,2.19-.71,4.3-1.63,6.32-2.26,4.98-6.56,5.24-10.66,2.99-2.38-1.3-3.43-3.69-4.06-6.18-1.58-6.24-2.31-12.6-2.42-19.03-.05-2.73,0-5.45,0-8.18Z"/>
    <path class="cls-1" d="M232.6,48.3c.04-3.84,.21-10.56,1.66-17.16,.67-3.05,1.67-5.97,3.24-8.69,2.05-3.57,5-5.73,9.14-6.21,5.3-.62,10.53-.36,15.56,1.51,9.51,3.55,13.79,12.18,10.94,21.96-1.17,4.02-2.9,7.76-5.96,10.74-.31,.31-.44,.53,.09,.73,4.69,1.78,6.91,5.63,7.65,10.18,1.11,6.83,.17,13.4-4.2,19.11-2.33,3.05-5.44,5.05-9.02,6.3-4.3,1.49-8.76,1.99-13.28,1.84-4.46-.15-7.61-2.54-9.94-6.17-2.6-4.05-3.86-8.58-4.65-13.26-1.01-5.96-1.29-11.98-1.22-20.89Zm20.93,12.83c-1.47-.04-2.29,.34-2.66,1.17-.73,1.65-.09,4.2,1.29,5.08,1.31,.84,3.5,.39,4.81-1,1.3-1.37,1.07-3.32-.52-4.34-.92-.59-1.95-.86-2.92-.91Zm-3.25-20c.03,.23,.05,.82,.2,1.36,.2,.71,.64,1.23,1.48,1.16,1.23-.1,2.42-.35,3.44-1.12,1.19-.89,1.86-2.51,1.54-3.72-.27-1-1.74-1.93-3.21-2.03-2.18-.15-3.39,1.26-3.46,4.34Z"/>
    <path class="cls-1" d="M120.3,75.15c.21-6.47,1.28-12.83,2.63-19.14,2.16-10.11,4.95-20.02,9.2-29.48,1.45-3.23,3.11-6.35,6.06-8.54,4.12-3.07,8.34-2.86,12.08,.67,3.4,3.2,5.53,7.24,7.33,11.46,3.41,7.96,5.46,16.34,7.48,24.73,1.69,7.02,3.17,14.07,4.13,21.23,.39,2.88,.23,5.64-1.5,8.17-3.28,4.79-12.44,5.72-16.31-.89-1.95-3.33-2.63-7.03-3.32-10.72-.2-1.08-.49-1.19-1.45-.87-1.78,.58-3.61,.82-5.41,.09-.77-.31-.74,.23-.85,.65-.71,2.59-1.41,5.18-2.42,7.68-.74,1.82-1.63,3.56-2.89,5.08-2.48,2.98-6.95,4.07-10.47,2.54-2.04-.89-3.05-2.61-3.62-4.65-.73-2.63-.72-5.32-.68-8.01Zm26.07-25c-.06-.82-.11-1.97-.25-3.11-.18-1.44-.38-2.89-.89-4.27-.17-.45-.28-1.1-.84-1.13-.6-.04-.67,.64-.89,1.06-.09,.17-.15,.35-.2,.54-.8,2.91-1.01,5.89-.9,8.89,.02,.52,.22,1.05,.4,1.54,.28,.76,.84,1.17,1.67,1.14,.84-.03,1.3-.52,1.59-1.27,.38-1,.33-2.03,.31-3.4Z"/>
    <path class="cls-1" d="M.03,52.73c-.01-8.15,.46-16.26,1.8-24.31,.23-1.36,.55-2.7,.84-4.05,1-4.62,4.11-7.1,8.45-8.32,2.98-.84,6-.72,9.02-.25,4.53,.7,8.9,1.93,13.12,3.76,2.64,1.15,4.12,3.08,4.51,5.9,.39,2.8,.42,5.59-.17,8.36-1.04,4.89-4.32,7.03-9.29,6.28-2.44-.37-4.71-1.36-7.16-1.66-.96-.12-1.91-.13-2.87-.12-.81,.01-1.1,.46-1.07,1.18,.04,1.06,.42,1.9,1.48,2.39,2.04,.93,4.23,1.07,6.4,1.32,1.92,.22,3.82,.49,5.55,1.39,2.05,1.07,3.41,2.69,3.82,5.02,.38,2.15,.31,4.28-.37,6.36-1.05,3.17-3.98,5.25-7.54,5.48-2.08,.14-4.13-.29-6.21-.25-.93,.02-1.84,.09-2.71,.42-1.1,.41-1.24,.73-.71,1.78,.33,.66,.89,1,1.61,1.17,2.08,.49,4.19,.45,6.3,.46,1.65,0,3.3-.11,4.94,.22,3.93,.8,6.21,3,6.81,6.93,.42,2.71,.27,5.44-.76,8.04-1.41,3.57-4.16,5.64-7.75,6.6-5.04,1.34-10.12,1.33-15.12-.21-5.75-1.77-8.84-6.07-10.58-11.55C.68,69.8,.26,64.33,.04,58.84c-.08-2.03-.01-4.07-.01-6.1Z"/>
    <path class="cls-1" d="M95.63,51.58c.1,3.17,.38,6.53,1.53,9.75,.51,1.42,1.19,2.75,2.37,3.75,1.71,1.46,3.39,1.24,4.68-.58,1.02-1.44,1.76-3.05,2.96-4.38,2.38-2.63,5.39-2.56,7.52,.24,1.58,2.07,2.28,4.49,2.81,6.98,.68,3.19,.79,6.4,.05,9.6-.78,3.39-2.55,6.28-5.49,8.07-6.97,4.26-14.42,5.09-22.03,1.92-4.6-1.92-7.48-5.75-9.65-10.11-2.16-4.35-3.26-9.01-3.82-13.79-.92-7.82-1.03-15.63,.5-23.39,.98-5.01,2.67-9.77,5.67-13.97,5.15-7.23,12.26-9.98,20.94-9.06,2.7,.29,5.29,.95,7.62,2.39,2.99,1.85,4.9,4.49,5.64,7.92,.89,4.1,.88,8.16-.98,12.04-1.62,3.36-3.94,4.09-7.25,2.37-1.09-.57-2.15-1.18-3.28-1.67-3.68-1.62-6.91-.33-8.49,3.36-1.15,2.67-1.31,5.5-1.3,8.57Z"/>
    <path class="cls-1" d="M41.58,53.14c-.09-8.62,.19-16.29,1.35-23.9,.44-2.85,1.13-5.61,2.39-8.24,2.3-4.78,9.56-4.34,11.92-.46,1.4,2.3,1.94,4.83,2.17,7.45,.49,5.57,.08,11.12-.37,16.68-.39,4.79-.6,9.58-.22,14.38,.1,1.23,.27,2.44,.73,3.6,.57,1.46,1.3,1.98,2.87,1.98,1.8,0,3.62-.24,5.4,.08,4.8,.88,7.89,4.49,8.23,9.59,.11,1.65,.08,3.29-.2,4.94-.52,3.09-2.22,5.35-4.96,6.64-3.88,1.84-7.93,3.09-12.34,2.71-5.73-.49-9.94-3.32-12.79-8.24-2.06-3.55-2.98-7.45-3.53-11.47-.75-5.54-.3-11.13-.66-15.75Z"/>
    <path class="cls-2" d="M253.54,61.13c.96,.06,1.99,.32,2.92,.91,1.59,1.02,1.82,2.96,.52,4.34-1.31,1.39-3.49,1.84-4.81,1-1.38-.88-2.03-3.43-1.29-5.08,.37-.83,1.19-1.21,2.66-1.17Z"/>
  </g>
  <path class="cls-2" d="M250.29,41.13c.07-3.09,1.28-4.49,3.46-4.34,1.47,.1,2.94,1.04,3.21,2.03,.32,1.21-.35,2.83-1.54,3.72-1.02,.76-2.21,1.02-3.44,1.12-.84,.07-1.28-.45-1.48-1.16-.15-.54-.17-1.13-.2-1.36Z"/>
  <path class="cls-2" d="M146.37,50.15c.02,1.37,.07,2.4-.31,3.4-.28,.74-.74,1.24-1.59,1.27-.83,.03-1.39-.38-1.67-1.14-.18-.5-.38-1.02-.4-1.54-.1-3,.1-5.98,.9-8.89,.05-.18,.12-.37,.2-.54,.22-.42,.29-1.1,.89-1.06,.56,.04,.67,.68,.84,1.13,.52,1.37,.71,2.82,.89,4.27,.14,1.14,.19,2.29,.25,3.11Z"/>
</svg>