<?xml version="1.0" encoding="utf-8"?>
<!-- Generator: Adobe Illustrator 26.5.0, SVG Export Plug-In . SVG Version: 6.00 Build 0)  -->
<svg version="1.1" id="Layer_1" xmlns="http://www.w3.org/2000/svg" xmlns:xlink="http://www.w3.org/1999/xlink" x="0px" y="0px"
	 viewBox="0 0 394.6 229.3" style="enable-background:new 0 0 394.6 229.3;" xml:space="preserve">
<style type="text/css">
	.st0{fill:#A5DA24;}
	.st1{fill:#056528;}
	.st2{fill:#020202;}
</style>
<path class="st0" d="M365,64c-4,0-7.7,0.9-11.4,1.6c-2.5,0.4-4.9,1-7.3,1.6c-4.3,1.1-8.5,2.5-12.6,4.4c-4.7,2.2-9.2,4.8-13.1,8.2
	c-2.2,1.9-4.1,4.1-5.9,6.3c-2.1,2.6-3.7,5.4-5.2,8.4c-1.3,2.6-2.3,5.4-3,8.2c-0.6,2.3-1.1,4.5-1.5,6.8c-0.4,2.6-0.6,5.2-0.8,7.8
	c-0.4,4.3,0,8.6,0.1,12.9c0,0.4,0.4,1.1-0.5,1.2c-0.7,0.1-0.9-0.4-1-0.9c-1.9-6-4.1-11.9-5.2-18.2c-0.8-4.5-1.1-9-0.9-13.5
	c0.1-2.4,0.3-4.9,0.8-7.3c0.6-2.9,1.2-5.9,2.4-8.7c1.2-2.7,2.4-5.4,3.8-8.1c0.7-1.3,1.6-2.5,2.5-3.7c1.7-2.3,3.6-4.4,5.7-6.4
	c2.5-2.4,5.4-4.3,8.3-6.2c3.8-2.4,7.7-4.5,11.7-6.5c2.7-1.4,5.5-2.5,8.4-3.7c2.6-1,5.1-2.1,7.6-3.1c2.3-0.9,4.6-1.8,7-2.6
	c1.9-0.6,3.8-1.5,5.7-2.3c3.1-1.3,6.2-2.6,9.2-4c2.8-1.3,5.7-2.6,8.4-4.2c2.1-1.2,4.2-2.5,6.2-4.1c1.2-1,2.3-2.1,3.5-3.1
	c1-0.9,1.4-0.7,2,0.5c0.4,0.9,0.5,1.9,0.7,2.8c1.3,7.1,2.4,14.2,3.1,21.4c0.5,4.8,0.7,9.7,0.9,14.6c0.3,6.9-0.4,13.8-1.3,20.6
	c-0.6,4.4-1.7,8.8-3.2,13c-1.3,3.6-2.8,7.2-4.8,10.6c-1.5,2.5-2.9,5-4.8,7.3c-1.5,1.8-3.1,3.4-4.8,5c-1.7,1.6-3.4,3.3-5.4,4.6
	c-2.8,2.1-5.9,3.8-9,5.3c-3.8,1.8-7.8,3.2-11.8,4.3c-3.1,0.9-6.3,1.5-9.4,1.9c-5.1,0.7-10.2,1.2-15.4,1.1c-3-0.1-4.2-0.9-5.2-3.8
	c-1.1-3.1-1.9-6.2-2.3-9.5c-0.6-4.5-0.5-8.9,0.2-13.3c0.6-4.1,1.8-8,3.3-11.8c2-4.7,4.5-9.1,7.8-13c2.1-2.5,4.4-4.9,6.9-7.1
	c4.8-4.4,10.1-7.9,16-10.5c2.8-1.2,5.7-2.3,8.7-3.2C361.7,65.1,363.5,65.1,365,64L365,64z"/>
<path class="st1" d="M304.6,46c-6.8,8.6-12.8,17.7-16.4,28.2c-4.4,12.8-3.9,25.3,2.3,37.5c0.9,1.8,1.9,3.7,3.1,5.4
	c1.3,1.9,1.8,4.1,2.5,6.3c0.6,1.8,1.2,3.7,1.8,5.6c0.1,0.4,0.3,0.8,0,1.1c-0.4,0.3-0.8,0-1-0.2c-10.5-6.4-19.1-14.7-24.3-26.1
	c-4.1-9.1-4.9-18.6-3.1-28.4c1.6-8.5,4.5-16.5,7.8-24.5c2.6-6.4,5.4-12.7,8.1-19c2.5-5.7,4.9-11.5,6.7-17.5
	c1.2-4.1,2.1-8.2,1.9-12.4c0-0.7,0-1.4,0.7-1.7c0.6-0.3,1.2,0.1,1.7,0.4c9.9,6.8,19.6,13.9,28.4,22.2c6,5.6,11.5,11.6,16.1,18.4
	c1,1.5,0.9,2-0.8,2.7c-5.9,2.5-11.8,5.1-17.5,8.2c-8.3,4.6-15.6,10.4-21.6,17.8c-2.5,3.2-4.6,6.6-6.1,10.4c-0.2,0.4-0.4,0.8-0.7,1.2
	c0-1.5-0.1-3.1,0-4.6c0.5-7.3,2.7-14.1,5.6-20.8c1.5-3.3,3.2-6.5,5-9.7c0.4-0.4,0.8-0.9,0.8-1.6C305,44.9,304.8,45.4,304.6,46
	L304.6,46z"/>
<path class="st2" d="M278.5,215.2c0-7.5,1-13.8,2.2-20.1c1.5-8.3,3.5-16.5,6-24.6c2.2-7.2,4.7-14.4,8.3-21c1.5-2.9,3.5-5.4,6.2-7.2
	c4.9-3.2,9.8-2.8,14.1,1.2c3.7,3.4,6.1,7.7,8.2,12.1c3.4,7.3,5.7,15,7.7,22.7c2.2,8.8,4.4,17.6,6,26.6c0.7,4,1.6,7.9,1.7,12
	c0.1,7-4.7,11.8-11.7,11.9c-4.9,0-8.3-2.2-10.7-6.4c-2-3.5-2.7-7.4-3.5-11.3c-0.2-0.9-0.1-2-0.6-2.5c-0.6-0.5-1.6,0.4-2.4,0.5
	c-2,0.3-3.9,0.6-5.8-0.3c-0.8-0.4-0.7,0.3-0.8,0.7c-0.7,2.8-1.5,5.6-2.5,8.3c-0.9,2.5-2,4.9-3.6,7c-3.4,4.5-10.3,5.9-14.6,2.9
	c-2-1.4-2.8-3.5-3.4-5.7C278.7,219.4,278.5,216.8,278.5,215.2L278.5,215.2z M310.5,181.8c-0.2-2.6-0.3-5.7-1.4-8.7
	c-0.2-0.6-0.3-1.4-1.1-1.3c-0.7,0-0.9,0.8-1,1.4c-1.2,3.9-1.6,7.9-1.2,11.9c0,0.4,0.2,0.8,0.3,1.2c0.4,1,1,1.7,2.2,1.7
	c1.2,0,1.7-0.8,2-1.8C310.6,184.9,310.6,183.6,310.5,181.8L310.5,181.8z"/>
<path class="st2" d="M172.4,192.6c0-7,0.1-14,0.9-20.9c0.5-4.2,1.6-8.1,4.7-11.2c3.6-3.5,8-3.8,12-0.8c3.1,2.3,5,5.4,6.4,8.8
	c1.3,3.2,2.6,6.4,3.9,9.6c0.3,0.7,0.5,1.6,1.4,1.6c0.8,0,1.1-0.9,1.4-1.6c1.4-3,2.4-6.2,3.7-9.3c1.4-3.4,3-6.8,5.7-9.4
	c3.6-3.4,8.1-3,11,1.1c2.4,3.3,3.3,7.2,4,11.2c1.2,6.6,1.3,13.2,1.2,19.9c-0.1,5.5,0.1,11.1-0.3,16.6c-0.3,4.9-0.7,9.8-2.6,14.4
	c-0.9,2.4-2.1,4.6-5,4.7c-3.4,0.2-6.4-0.8-8.3-3.9c-1.3-2.1-1.7-4.4-1.9-6.8c-0.3-4.7-0.1-9.4,1.2-14.1c0.5-2,0.3-4,0.2-5.9
	c0-0.3,0-0.8-0.5-0.8c-0.4-0.1-0.7,0.1-1,0.5c-0.9,1.1-1.3,2.5-1.7,3.9c-0.9,3.2-1.9,6.5-3.4,9.5c-0.1,0.3-0.3,0.6-0.4,0.8
	c-1.6,3.1-4.4,3.7-7.1,1.5c-2.2-1.8-3.1-4.4-3.8-7.1c-0.6-2.3-1.1-4.7-1.6-7.1c-0.1-0.6-0.2-1.5-0.8-1.5c-0.7,0-0.8,1-0.9,1.6
	c-0.3,1.9-0.3,3.7-0.2,5.6c0.2,4.4,0.8,8.8,0.4,13.2c-0.2,2.2-0.7,4.3-1.6,6.3c-2.3,5-6.6,5.2-10.7,3c-2.4-1.3-3.4-3.7-4.1-6.2
	c-1.6-6.2-2.3-12.6-2.4-19C172.3,198,172.4,195.3,172.4,192.6L172.4,192.6z"/>
<path class="st2" d="M232.6,188.4c0-3.8,0.2-10.6,1.7-17.2c0.7-3.1,1.7-6,3.2-8.7c2.1-3.6,5-5.7,9.1-6.2c5.3-0.6,10.5-0.4,15.6,1.5
	c9.5,3.6,13.8,12.2,10.9,22c-1.2,4-2.9,7.8-6,10.7c-0.3,0.3-0.4,0.5,0.1,0.7c4.7,1.8,6.9,5.6,7.6,10.2c1.1,6.8,0.2,13.4-4.2,19.1
	c-2.3,3.1-5.4,5.1-9,6.3c-4.3,1.5-8.8,2-13.3,1.8c-4.5-0.1-7.6-2.5-9.9-6.2c-2.6-4.1-3.9-8.6-4.6-13.3
	C232.8,203.3,232.5,197.3,232.6,188.4L232.6,188.4z M253.5,201.2c-1.5,0-2.3,0.3-2.7,1.2c-0.7,1.6-0.1,4.2,1.3,5.1
	c1.3,0.8,3.5,0.4,4.8-1c1.3-1.4,1.1-3.3-0.5-4.3C255.5,201.5,254.5,201.3,253.5,201.2L253.5,201.2z M250.3,181.2
	c0,0.2,0.1,0.8,0.2,1.4c0.2,0.7,0.6,1.2,1.5,1.2c1.2-0.1,2.4-0.4,3.4-1.1c1.2-0.9,1.9-2.5,1.5-3.7c-0.3-1-1.7-1.9-3.2-2
	C251.6,176.7,250.3,178.1,250.3,181.2L250.3,181.2z"/>
<path class="st2" d="M120.3,215.2c0.2-6.5,1.3-12.8,2.6-19.1c2.2-10.1,4.9-20,9.2-29.5c1.4-3.2,3.1-6.4,6.1-8.5
	c4.1-3.1,8.3-2.9,12.1,0.7c3.4,3.2,5.5,7.2,7.3,11.5c3.4,8,5.5,16.3,7.5,24.7c1.7,7,3.2,14.1,4.1,21.2c0.4,2.9,0.2,5.6-1.5,8.2
	c-3.3,4.8-12.4,5.7-16.3-0.9c-1.9-3.3-2.6-7-3.3-10.7c-0.2-1.1-0.5-1.2-1.4-0.9c-1.8,0.6-3.6,0.8-5.4,0.1c-0.8-0.3-0.7,0.2-0.9,0.6
	c-0.7,2.6-1.4,5.2-2.4,7.7c-0.7,1.8-1.6,3.6-2.9,5.1c-2.5,3-6.9,4.1-10.5,2.5c-2-0.9-3.1-2.6-3.6-4.6
	C120.2,220.6,120.2,217.9,120.3,215.2L120.3,215.2z M146.4,190.2c-0.1-0.8-0.1-2-0.2-3.1c-0.2-1.4-0.4-2.9-0.9-4.3
	c-0.2-0.4-0.3-1.1-0.8-1.1c-0.6,0-0.7,0.6-0.9,1.1c-0.1,0.2-0.1,0.4-0.2,0.5c-0.8,2.9-1,5.9-0.9,8.9c0,0.5,0.2,1.1,0.4,1.5
	c0.3,0.8,0.8,1.2,1.7,1.1c0.8,0,1.3-0.5,1.6-1.3C146.4,192.6,146.4,191.6,146.4,190.2L146.4,190.2z"/>
<path class="st2" d="M0,192.8c0-8.1,0.5-16.3,1.8-24.3c0.2-1.4,0.5-2.7,0.8-4.1c1-4.6,4.1-7.1,8.4-8.3c3-0.8,6-0.7,9-0.2
	c4.5,0.7,8.9,1.9,13.1,3.8c2.6,1.1,4.1,3.1,4.5,5.9c0.4,2.8,0.4,5.6-0.2,8.4c-1,4.9-4.3,7-9.3,6.3c-2.4-0.4-4.7-1.4-7.2-1.7
	c-1-0.1-1.9-0.1-2.9-0.1c-0.8,0-1.1,0.5-1.1,1.2c0,1.1,0.4,1.9,1.5,2.4c2,0.9,4.2,1.1,6.4,1.3c1.9,0.2,3.8,0.5,5.6,1.4
	c2,1.1,3.4,2.7,3.8,5c0.4,2.1,0.3,4.3-0.4,6.4c-1,3.2-4,5.2-7.5,5.5c-2.1,0.1-4.1-0.3-6.2-0.2c-0.9,0-1.8,0.1-2.7,0.4
	c-1.1,0.4-1.2,0.7-0.7,1.8c0.3,0.7,0.9,1,1.6,1.2c2.1,0.5,4.2,0.4,6.3,0.5c1.6,0,3.3-0.1,4.9,0.2c3.9,0.8,6.2,3,6.8,6.9
	c0.4,2.7,0.3,5.4-0.8,8c-1.4,3.6-4.2,5.6-7.8,6.6c-5,1.3-10.1,1.3-15.1-0.2c-5.8-1.8-8.8-6.1-10.6-11.6c-1.7-5.3-2.1-10.8-2.3-16.2
	C0,196.9,0,194.8,0,192.8L0,192.8z"/>
<path class="st2" d="M95.6,191.7c0.1,3.2,0.4,6.5,1.5,9.8c0.5,1.4,1.2,2.8,2.4,3.8c1.7,1.5,3.4,1.2,4.7-0.6c1-1.4,1.8-3.1,3-4.4
	c2.4-2.6,5.4-2.6,7.5,0.2c1.6,2.1,2.3,4.5,2.8,7c0.7,3.2,0.8,6.4,0.1,9.6c-0.8,3.4-2.6,6.3-5.5,8.1c-7,4.3-14.4,5.1-22,1.9
	c-4.6-1.9-7.5-5.8-9.7-10.1c-2.2-4.4-3.3-9-3.8-13.8c-0.9-7.8-1-15.6,0.5-23.4c1-5,2.7-9.8,5.7-14c5.2-7.2,12.3-10,20.9-9.1
	c2.7,0.3,5.3,0.9,7.6,2.4c3,1.9,4.9,4.5,5.6,7.9c0.9,4.1,0.9,8.2-1,12c-1.6,3.4-3.9,4.1-7.2,2.4c-1.1-0.6-2.2-1.2-3.3-1.7
	c-3.7-1.6-6.9-0.3-8.5,3.4C95.8,185.8,95.6,188.6,95.6,191.7L95.6,191.7z"/>
<path class="st2" d="M41.6,193.2c-0.1-8.6,0.2-16.3,1.3-23.9c0.4-2.9,1.1-5.6,2.4-8.2c2.3-4.8,9.6-4.3,11.9-0.5
	c1.4,2.3,1.9,4.8,2.2,7.4c0.5,5.6,0.1,11.1-0.4,16.7c-0.4,4.8-0.6,9.6-0.2,14.4c0.1,1.2,0.3,2.4,0.7,3.6c0.6,1.5,1.3,2,2.9,2
	c1.8,0,3.6-0.2,5.4,0.1c4.8,0.9,7.9,4.5,8.2,9.6c0.1,1.6,0.1,3.3-0.2,4.9c-0.5,3.1-2.2,5.4-5,6.6c-3.9,1.8-7.9,3.1-12.3,2.7
	c-5.7-0.5-9.9-3.3-12.8-8.2c-2.1-3.6-3-7.4-3.5-11.5C41.5,203.4,41.9,197.8,41.6,193.2L41.6,193.2z"/>
</svg>
