<?xml version="1.0" encoding="UTF-8"?>
<svg id="Layer_1" data-name="Layer 1" xmlns="http://www.w3.org/2000/svg" viewBox="0 0 126.04 137.89">
  <defs>
    <style>
      .cls-1 {
        fill: #056528;
      }

      .cls-2 {
        fill: #a5da24;
      }
    </style>
  </defs>
  <path class="cls-2" d="M96.48,64.02c-3.99-.02-7.68,.93-11.4,1.6-2.45,.44-4.87,1-7.28,1.62-4.31,1.12-8.51,2.52-12.56,4.37-4.72,2.16-9.17,4.8-13.1,8.21-2.18,1.89-4.09,4.07-5.92,6.33-2.1,2.59-3.74,5.43-5.16,8.39-1.26,2.63-2.27,5.38-3.04,8.22-.6,2.26-1.15,4.53-1.53,6.82-.42,2.56-.6,5.17-.83,7.76-.38,4.31,.02,8.59,.12,12.88,0,.4,.37,1.07-.47,1.18-.73,.1-.86-.4-1.03-.95-1.88-6.01-4.15-11.91-5.19-18.15-.75-4.47-1.13-8.99-.92-13.52,.11-2.44,.32-4.91,.8-7.3,.59-2.94,1.16-5.9,2.39-8.69,1.2-2.72,2.36-5.45,3.75-8.07,.7-1.31,1.64-2.51,2.55-3.7,1.73-2.27,3.62-4.4,5.71-6.36,2.55-2.39,5.42-4.29,8.34-6.16,3.76-2.4,7.69-4.48,11.67-6.49,2.72-1.37,5.52-2.55,8.35-3.67,2.56-1.01,5.07-2.14,7.63-3.13,2.3-.9,4.59-1.82,6.95-2.6,1.93-.64,3.81-1.49,5.7-2.3,3.08-1.31,6.19-2.57,9.22-3.97,2.83-1.31,5.66-2.63,8.37-4.19,2.14-1.24,4.25-2.51,6.17-4.06,1.21-.97,2.29-2.1,3.46-3.12,.99-.86,1.41-.72,1.97,.46,.42,.89,.51,1.85,.68,2.78,1.28,7.09,2.42,14.19,3.14,21.37,.48,4.85,.72,9.7,.93,14.56,.3,6.93-.36,13.8-1.31,20.64-.62,4.42-1.71,8.78-3.2,13-1.29,3.64-2.83,7.19-4.77,10.58-1.46,2.54-2.94,5.02-4.83,7.26-1.49,1.76-3.09,3.39-4.76,4.99-1.71,1.64-3.44,3.26-5.35,4.64-2.84,2.05-5.86,3.78-9.03,5.29-3.8,1.82-7.75,3.19-11.78,4.32-3.09,.86-6.27,1.48-9.44,1.93-5.08,.72-10.2,1.16-15.35,1.07-3.02-.05-4.18-.86-5.25-3.75-1.14-3.09-1.89-6.25-2.3-9.54-.56-4.46-.49-8.88,.17-13.3,.6-4.05,1.76-7.97,3.33-11.75,1.97-4.73,4.52-9.12,7.84-13.03,2.14-2.52,4.44-4.87,6.89-7.12,4.78-4.39,10.08-7.88,15.99-10.46,2.82-1.23,5.73-2.29,8.67-3.25,1.62-.52,3.42-.54,5-1.67Z"/>
  <path class="cls-1" d="M36.04,45.98c-6.77,8.63-12.77,17.7-16.39,28.16-4.44,12.82-3.93,25.32,2.29,37.48,.94,1.84,1.93,3.66,3.11,5.36,1.33,1.91,1.78,4.14,2.5,6.28,.62,1.85,1.23,3.72,1.84,5.57,.12,.36,.34,.77,0,1.07-.35,.31-.75,0-1.05-.18-10.54-6.43-19.14-14.69-24.32-26.09C-.1,94.55-.91,85.05,.93,75.28c1.6-8.49,4.54-16.55,7.82-24.49,2.64-6.37,5.38-12.7,8.14-19.02,2.5-5.73,4.9-11.49,6.69-17.48,1.21-4.06,2.12-8.17,1.94-12.45-.03-.67,.02-1.35,.69-1.71,.65-.35,1.2,.08,1.69,.42,9.94,6.79,19.62,13.9,28.42,22.16,5.97,5.6,11.45,11.63,16.14,18.36,1.05,1.51,.91,1.99-.82,2.72-5.94,2.49-11.82,5.1-17.46,8.23-8.3,4.61-15.64,10.37-21.59,17.81-2.52,3.16-4.64,6.57-6.07,10.38-.16,.42-.36,.83-.71,1.22,0-1.54-.09-3.08,.02-4.61,.53-7.28,2.67-14.14,5.63-20.77,1.49-3.33,3.23-6.52,4.97-9.72,.42-.42,.75-.87,.78-1.6-.72,.21-1.01,.68-1.18,1.26Z"/>
</svg>